<svg xmlns="http://www.w3.org/2000/svg" viewBox="0 0 64 64"><path fill="#1c1e26" d="M39.17 27.38c-.99 3.97-7.1 1.95-9.08 1.46l1.75-7.01c1.98.49 8.36 1.41 7.33 5.55zm-9.97 4.99l-1.93 7.73c2.38.59 9.73 2.95 10.81-1.41 1.14-4.55-6.49-5.72-8.88-6.32zM41.66 62.5C18.13 69.98-5.15 48.73.96 24.26 6.71 1.16 34.67-7.57 52.58 7.5c19.28 16.22 13.12 47.36-10.92 55zm-.04-29.89c4.93-1.15 8.21-9.53-2.55-13.24l1.44-5.77-3.51-.88-1.4 5.62-2.81-.66 1.41-5.65-3.51-.88-1.44 5.77s-5.41-1.34-7.08-1.75l-.93 3.75c2.64.6 4.64.84 4.19 2.68l-3.94 15.8c-.36 1.42-1.62.87-4.16.2l-1.74 4.02 7.07 1.78-1.45 5.83 3.51.88 1.44-5.77 2.8.73-1.46 5.73 3.51.88 1.45-5.82c14.02 2.65 15.9-9.74 9.16-13.25z"/></svg>