<svg xmlns="http://www.w3.org/2000/svg" viewBox="0 0 32 32" width="32" height="32"><path fill="#ecc214" d="M16 5C9.92 5 5 9.92 5 16s4.92 11 11 11 11-4.92 11-11S22.08 5 16 5zm1.67 8.66c0-2.08-2.47-1.97-2.47-.31 0 2.29 5.05 1.24 5.05 5.3 0 1.92-1.34 3.18-3.25 3.36v1h-1v-1c-2.15-.18-3.84-1.58-3.79-3.82h2.57c0 2.22 2.84 2.12 2.84.48 0-1.84-2.38-1.44-4.18-3.06-1.45-1.3-1.35-5.28 2.57-5.6V9h1v1c1.9.25 3.3 1.7 3.27 3.66h-2.61zM16 0C7.16 0 0 7.16 0 16s7.16 16 16 16 16-7.16 16-16S24.84 0 16 0zm0 29C8.82 29 3 23.18 3 16S8.82 3 16 3s13 5.82 13 13-5.82 13-13 13z"/></svg>