<svg xmlns="http://www.w3.org/2000/svg" viewBox="0 0 30 30" width="30" height="30"><path fill="#67B2FF" d="M26.05 14.83l-15-4.17L15.79 0 30 3.33l-3.95 11.5zM15.9 3l-1.64 5.12.88.25.65-2.04 1.39.4.3-.94-1.39-.4.38-1.17 1.52.45.3-.94L15.9 3zm4.05 1.2l-1.28-.38-1.62 5.08.86.24.57-1.8.48.14.06 1.97.91.26-.09-2.3c1.2-.34 1.76-2.72.11-3.21zm1.96.58l-1.59 5.04 2.4.67.29-.93-1.56-.44.38-1.2 1.31.38.28-.9-1.31-.38.33-1.06 1.55.45.29-.93-2.37-.7zm1.18 5.81l2.37.66.29-.93-1.53-.42.37-1.19 1.29.37.28-.89-1.29-.37.33-1.05 1.53.45.29-.92-2.35-.69-1.58 4.98zm-3.81-4.03l-.5-.15.44-1.39.58.17c.58.2.19 1.57-.52 1.37zM15 30v-9.33l11.05-5.83v8.5L15 30zm-3.16-10.17h-.79v-7.88l-9.47 5.38H0l11.05-6.67.79.83v8.34zM14.21 30L0 26.67v-9.33l14.21 3.33V30z"/></svg>