<svg xmlns="http://www.w3.org/2000/svg" viewBox="0 0 297.63 408.45"><path fill="#cce2ff" d="M175.05 1.63c44.52 5.57 84.08 26.08 119.81 53.55 2 1.54 2.78 3.14 2.77 5.67-.07 68.78-.04 137.56-.08 206.34-.01 17.2-7.64 31.61-17.39 45.03-28.62 39.42-83.92 74.02-127.05 95.19-1.98.97-5.14 1.47-6.94.58C98.18 384.17 30.09 342.54 7.12 294.22-2.57 273.84.6 283.4.18 60.64c-.01-3.13 1.67-4.54 3.58-6.13C54.95 11.94 116.05-5.76 175.05 1.63zM23.88 287.23c22.65 41.12 80.89 76.83 123.2 97.76 1.23.61 3.42.33 4.69-.37 17.54-9.67 113.92-56.59 128.95-113.71 2.93-11.15 1.79-2.42 2.23-196.89.01-3.13-.82-5.29-3.46-7.01-19.52-12.78-76.68-61.81-162.98-46.56-36.81 6.5-69.34 22.53-98.14 46.29-2.32 1.91-2.98 4.05-2.98 6.91.45 195.45-3.53 191.77 8.49 213.58zm18.01-190c-.03-4.04 1.29-6.61 4.33-9.1 23.53-19.28 50.05-32.27 80.07-37.32 66.27-11.15 108.16 24.67 129.51 38.44 2.69 1.74 3.62 3.94 3.6 7.31-.08 15.65.4 147.25-1.03 158.11-5.38 40.78-68.79 79.92-105.41 98.85-1.2.62-3.22.8-4.36.21-40.54-20.87-106.2-61.44-106.54-107.34-.29-39.25.13-109.62-.17-149.16zm100.93 1.17c0 4.77-.14 8.75.05 12.72.12 2.57-.89 3.05-3.31 3.68-16.28 4.22-40.03 8-41.61 33.89-1.68 27.55 19.79 35.59 41.29 44.87 2.31 1 3.3 2.01 3.22 4.57-.17 5.5-.01 4.82-.01 29.45-15.66-1.57-29.93-5.85-44.32-11.67 0 8.31.11 16.13-.07 23.95-.06 2.47.91 3.56 3.06 4.34 11.96 4.36 24.24 7.2 37.01 7.15 3.97-.01 4.93 1.32 4.72 5.03-.31 5.37-.08 10.77-.08 16.07h13.95v-20.94c33.87-5.12 43.38-18.77 45.41-33.8 3.92-29.15-22.44-36.06-42.33-46-1.15-.58-2.89-1.67-2.91-2.55-.21-9.69-.13-19.38-.13-29.42 11.81.7 22.55 3.85 33.39 7.85 3.25-8.09 6.4-15.92 9.65-24.02-13.8-6.34-28.25-8.71-43.18-9.78V98.86c-5.33-.54-1.5-.46-13.8-.46zm28.12 115.4c-.2-5.47-7.4-11.78-14.06-12.3v24.96c9.93-1.53 14.32-5.61 14.06-12.66zm-28.78-73.41c-7.84.67-12.52 4.22-13.07 9.68-.63 6.3 4.18 11.54 13.07 13.99v-23.67z"/></svg>