<svg xmlns="http://www.w3.org/2000/svg" viewBox="0 0 30.1 30.1" width="30" height="30"><path d="M28.3 16.9c-1 .7-1.4 2-.8 3.1 1.2 2.4 1.2 3.1-1.9 3.3-1.2.1-2.2 1.1-2.3 2.3-.2 2.7-.5 3.3-3.3 1.9-1.1-.5-2.5-.1-3.1.8-1.5 2.3-2 2.6-3.8 0-.7-1-2-1.4-3.1-.8-2.4 1.2-3.1 1.2-3.3-1.9-.1-1.2-1.1-2.2-2.3-2.3-2.7-.2-3.3-.5-1.9-3.3.5-1.1.1-2.5-.8-3.1-2.3-1.5-2.6-2 0-3.8 1-.7 1.4-2.1.8-3.1-1-2.4-1.1-3 2-3.2 1.2-.1 2.2-1.1 2.3-2.3.2-2.7.5-3.2 3.3-1.9 1.1.5 2.5.1 3.1-.8 1.5-2.3 2-2.6 3.8 0 .7 1 2 1.4 3.1.8 2.4-1.2 3.1-1.2 3.3 1.9.1 1.2 1.1 2.2 2.3 2.3 2.7.2 3.2.5 1.9 3.3-.5 1.1-.1 2.5.8 3.1 2.1 1.5 2.4 2-.1 3.7zm-17.7-8c-.9.8-1 1.7-1 2.7-.1 2.9 3.2 3.4 4.8 2 .9-.8.9-1.7 1-2.7.2-2.9-3.2-3.4-4.8-2zm7.6.7l-8 10.3 1.4.8 8-10.3-1.4-.8zm1.4 6.8c-1.4-1.4-4.9-1-5.1 2-.1 1-.2 1.9.6 2.7 1.4 1.4 4.8 1 5.1-2 .1-1 .2-1.9-.6-2.7zm-2.5 3.8c-.9 0-.8-1-.6-1.8.1-.6.6-1.1 1.2-1.1.9 0 .8.8.6 1.7-.1.8-.5 1.2-1.2 1.2zm-4.8-7.5c-.9 0-.7-.9-.6-1.8.1-.6.6-1.1 1.2-1.1.9 0 .7.9.6 1.8-.2.6-.6 1.1-1.2 1.1z" fill="#eb68ff"/></svg>