<svg xmlns="http://www.w3.org/2000/svg" viewBox="0 0 21 21"><path d="M0 0v7h7V0H0zm6 6H1V1h5v5z"/><path d="M2 2h3v3H2zM0 14v7h7v-7H0zm6 6H1v-5h5v5z"/><path d="M2 16h3v3H2zM14 0v7h7V0h-7zm6 6h-5V1h5v5z"/><path d="M16 2h3v3h-3zM9 1h3v1H9zm3 1h1v1h-1zm-2 1h2v1h-2zM5 8h2v1H5zm1 4h1v1H6zm2-1h1v1H8zm1 1h1v1H9zm-1 1h1v1H8zm0 7h1v1H8zm2-1h1v1h-1zm1-3h1v1h-1zm2-4h1v1h-1zm1-1h1v1h-1zm-3-2h1v1h-1zm2-1h1v1h-1zm6 6h1v1h-1zm0 6h1v1h-1zm-3 0h1v1h-1zm-2 0h1v1h-1zM0 8v2h4V8H3v1H1V8z"/><path d="M7 10v1H5v2H0v-1h2v-1h2v-1zm2 0h2v1H9zm3 0h2v1h-2zM8 8h1v2H8zm4-4v1H8v2h1V6h1v1H9v1h4V4h-1zm0 3h-1V6h1v1z"/><path d="M15 9V8h1v1h2v1h1v1h-1v4h-1v2h4v2h-1v-1h-1v1h-4v-2h1v-2h-2v2h-1v-1h-1v-2h-1v-3h1v2h1v1h2v-1h1v1h1v-4h-1v1h-1v-1h-1V9zm4 0h2v2h-1v-1h-1z"/><path d="M20 13h-1v-2h1v1h1v2h-1zm-7 7h1v-1h-1v-2h-1v1h-1v1h1v1h-1v1h2zm-3-2v-4H9v1H8v1h1v1H8v1z"/></svg>