<svg xmlns="http://www.w3.org/2000/svg" viewBox="0 0 255.53 159.84" width="256" height="160"><path fill="#E21836" d="M50.04 0h63.78L76.57 159.84H12.8c-8.89 0-14.44-7.26-12.36-16.16l29.7-127.49C32.22 7.26 41.13 0 50.04 0"/><path fill="#00447C" d="M108.51 0h73.34L144.6 159.84H71.26c-8.92 0-14.44-7.26-12.34-16.16L88.61 16.19C90.72 7.26 99.61 0 108.51 0"/><path fill="#007B84" d="M178.95 0h63.78c8.92 0 14.45 7.26 12.36 16.19L225.4 143.67c-2.1 8.9-11.02 16.16-19.93 16.16h-63.75c-8.92 0-14.45-7.26-12.36-16.16l29.69-127.49C161.12 7.26 170.03 0 178.95 0"/><path fill="#FEFEFE" d="M66.7 40.86c-6.56.07-8.5 0-9.11-.15-.21 1-4.33 20.04-4.83 22.25-.9 3.96-2.29 9.93-8.55 9.93-2.91 0-4.67-1.44-4.89-4.18-.39-4.85 6.21-26.84 6.38-27.85-9.04.08-10.64 0-10.75-.15 0 0-3.36 15.02-5.34 23.67-2.23 9.74-.44 14.92 11.94 14.92 13.47 0 16.78-6.96 18.68-13.33.15-.55 6.18-24.66 6.47-25.11zm9.1 17.96c.72-2.59.78-2.05.28-2.61-4.02.81-4.91.92-8.62 1.44l-.31.21c-.85 7.04-2.19 12.51-4.28 21.05l.17.33c3.8-.2 4.95-.2 8.26-.15l.27-.29c.46-2.38 2.55-12.89 3.2-15.22 2.47-1.14 4.28-1.25 3.97 1.5-.2 2.74-2.41 11.69-2.9 13.87l.14.29c3.75-.2 4.89-.2 8.09-.15l.38-.29c.61-3.54 1.16-6.47 2.29-11.39 1.01-4.4 1.49-6.62.75-8.44-1.69-4.11-7.75-2.48-11.69-.15zm25.37 2.23c-1.62.31-3.12.65-8.92 1.45l-.15.14-.14.11c-1.67 11.96-2.64 12.33-3.65 16.16l.12.17.1.16c5.3-.25 5.31-.16 8.58-.15l.17-.14.18-.15c.94-5.61 2.53-11.9 3.85-17.4l-.05-.18-.09-.17zm.04-6.21c-1.81-1.07-4.98-.72-7.12.75-2.13 1.45-2.38 3.51-.57 4.58 1.77 1.05 4.96.72 7.09-.76 2.11-1.48 2.38-3.51.6-4.57zm21.18 20.73c3.04-3.4 5.7-12.29 2.66-16.16-3.22-4.12-12.86-3.61-17.33.52-4.18 3.87-7.89 15.93-.77 18.81 2.44 1.04 10.49 2.08 15.44-3.17zm-10.52-7.09c.84-3.73 1.84-6.87 4.38-6.87 1.99 0 2.06 2.31 1.25 6.08-.53 2.49-1.73 6.8-4.27 6.8-2.59 0-1.93-3.5-1.36-6.01zm23.19 10.61l.29-.29c1.35-7.15 2.79-13.74 3.19-15.22 2.48-1.15 4.21-1.26 3.97 1.5-.24 2.69-2.68 12.88-2.9 13.88l.14.29c3.76-.2 4.86-.2 8.08-.15l.39-.29c.56-3.34.78-4.77 2.28-11.39 1-4.4 1.51-6.62.77-8.44-1.66-4.07-7.78-2.54-11.67-.15l.58-2.23-.31-.38c-4.01.81-4.93.92-8.64 1.45l-.28.21c-.82 6.48-1.6 10.11-4.28 21.05l.17.33c3.78-.22 4.92-.22 8.22-.17zm27.61.15c1.99-9.7 2.5-12.36 3.03-13.31 1.26-2.25 19.28 3.11 23.19-13.96 2.63-10.83-5.89-11.24-13.29-11.28-2.48 0-11.45.2-13.53-.05-1.81 9.5-5 22.13-8.99 38.57 6.07-.09 8.55-.09 9.59.03zm7.36-32.94c4.69.48 10.54-.4 9.05 6.36-1.42 6.42-6.51 6.7-11.91 6.7.45-2.42 2.72-11.42 2.86-13.06zm13.69 22.39c-2.56 10.92 7.08 13.48 12.17 9.2-.16.6-.45 1.23-.13 1.65 3.58-.15 4.69-.15 8.56-.12l.35-.27c1.04-6.14 1.5-8.67 4.74-22.02l-.12-.33c-4 .74-5.07.9-8.92 1.45-.38.31-.27.06-.41 1.14-3.52-5.71-13.86-1.31-16.24 9.3zm8.4.18c.85-3.67 1.84-6.77 4.39-6.77 3.84 0 1.92 6.45 1.03 9.33-.39 1.25-1.31 3.41-4.06 3.41-2.61 0-1.91-3.56-1.36-5.97zm43.89-12.1l-.31-.35c-3.96.8-4.68.93-8.31 1.42-.37.37-.32.38-.32.38-2.71 6.25-2.63 4.9-4.83 9.82-.7-12.57-.38-11.06-.92-11.62-4.15.8-4.25.93-8.08 1.42-.41.37-.28.17-.37.69.46 1 2.41 18.34 2.67 20.94-2.43 4-3.12 5.67-5.25 8.96-2.9 4.47-1.94 4.23-4.94 4.23l-1.44 4.8c6.24.11 8.42.77 11.09-3.82 6.22-10.71 5.27-9.88 21.01-36.87zm-52.29 63.08h-2.1l7.78-25.73h2.58l.82-2.65c.18 6.6.33 6.12 9.54 6.12l1.5-4.95c-3.54 0-2.93.36-3.04-3.75-11.29 0-6.64-.01-8.78.03-10.69.23-12.02.33-15.17 2.59l.79-2.65h-7.54l-9.45 31.39h-1.53l-1.5 4.92h15.02l-.5 1.64h7.4l.49-1.64h2.08l1.61-5.32zm-9.62-19.15l2-6.58h5.99l-1.45 4.79c-2.59.16-3.74.53-6.54 1.79zm3.57 8.05c-2.91.36-3.54.48-6.63 2.05l2.06-6.84h6.02l-1.45 4.79zm-3.36 11.16h-6.01l1.74-5.78h5.99l-1.72 5.78zm14.48-15.96h8.67l-1.25 4.03h-8.78l-1.32 4.41h7.68c-7.25 10.21-5.92 9.62-10.69 9.62l-1.46 4.83c10.24 0 8.66.77 15.44-8.51 1.19 7.71.29 8.32 8.9 8.32l1.64-5.4c-3.63 0-2.85.97-4.1-7.01h-3.56l1.56-1.86h8.76l1.35-4.41h-8.11l1.26-4.03h8.09l1.5-4.97h-24.11l-1.47 4.98zm-71.16 10.36h8.31l1.52-5h-8.32l1.27-4.14h8.13l1.51-4.85H109.7l-1.48 4.85h4.62l-1.23 4.14h-4.63l-1.54 5.09h4.62c-4.25 14.03-4.6 12.45 10.8 12.45l1.67-5.54c-9.22 1.26-7.33 1.09-4.9-7zm-1.07-25.48c-3.42 6.18-2.61 5.68-6.31 5.68l-1.47 4.87c3.75 0 6.35.49 10.04-2.71h11.4l1.51-5.07h-8.34l1.46-2.77h-8.29zm20.18 20.19c21.82 0 18.27 2.44 25.05-20.17-12.84.07-15.26-.52-20.42 3.61l1.04-3.58h-7.1l-9.95 32.99c-1.39 5.03-1.42 4.97 12.29 4.97l1.68-5.66c-8.04.77-6.98 2.4-2.59-12.16zm2.01-6.96h11.64l-.74 2.32-11.62.02.72-2.34zm2.34-7.78h11.74l-.84 2.79c-4.13-.04-8.98-.44-12.59 2.87l1.69-5.66zm5.52 18.79l.1-2.82h-6.9c-.38 18.79-2.95 16.49 10.86 16.49l1.56-5.17c-6.74.37-5.93 1.24-5.88-4.64 7.49-.31 8.18.16 9.69-7h-5.42c-1.1 3.48-.48 3.14-4.01 3.14z"/></svg>